<svg xmlns="http://www.w3.org/2000/svg" xmlns:xlink="http://www.w3.org/1999/xlink" width="1024" zoomAndPan="magnify" viewBox="0 0 768 767.999994" height="1024" preserveAspectRatio="xMidYMid meet" version="1.0"><defs><g/></defs><rect x="-76.8" width="921.6" fill="#ffffff" y="-76.799999" height="921.599993" fill-opacity="1"/><rect x="-76.8" width="921.6" fill="#ffffff" y="-76.799999" height="921.599993" fill-opacity="1"/><g fill="#000000" fill-opacity="1"><g transform="translate(259.415616, 394.5)"><g><path d="M 10.171875 -19.984375 C 11.546875 -19.984375 12.722656 -19.738281 13.703125 -19.25 C 14.691406 -18.757812 15.441406 -18.054688 15.953125 -17.140625 C 16.472656 -16.222656 16.734375 -15.144531 16.734375 -13.90625 C 16.734375 -12.664062 16.472656 -11.585938 15.953125 -10.671875 C 15.441406 -9.765625 14.691406 -9.0625 13.703125 -8.5625 C 12.722656 -8.070312 11.546875 -7.828125 10.171875 -7.828125 L 5.375 -7.828125 L 5.375 0 L 3.015625 0 L 3.015625 -19.984375 Z M 10.109375 -9.828125 C 12.890625 -9.828125 14.28125 -11.1875 14.28125 -13.90625 C 14.28125 -16.632812 12.890625 -18 10.109375 -18 L 5.375 -18 L 5.375 -9.828125 Z M 10.109375 -9.828125 "/></g></g></g><g fill="#000000" fill-opacity="1"><g transform="translate(277.637688, 394.5)"><g><path d="M 6 0.28125 C 4.9375 0.28125 4.097656 -0.0195312 3.484375 -0.625 C 2.878906 -1.226562 2.578125 -2.132812 2.578125 -3.34375 L 2.578125 -21.140625 L 4.796875 -21.140625 L 4.796875 -3.484375 C 4.796875 -2.859375 4.914062 -2.40625 5.15625 -2.125 C 5.40625 -1.84375 5.785156 -1.703125 6.296875 -1.703125 C 6.597656 -1.703125 6.910156 -1.753906 7.234375 -1.859375 L 7.421875 -1.8125 L 7.6875 -0.0625 C 7.519531 0.0507812 7.28125 0.132812 6.96875 0.1875 C 6.664062 0.25 6.34375 0.28125 6 0.28125 Z M 6 0.28125 "/></g></g></g><g fill="#000000" fill-opacity="1"><g transform="translate(285.839668, 394.5)"><g><path d="M 6.21875 0.28125 C 4.738281 0.28125 3.578125 -0.101562 2.734375 -0.875 C 1.898438 -1.644531 1.484375 -2.753906 1.484375 -4.203125 C 1.484375 -5.085938 1.664062 -5.835938 2.03125 -6.453125 C 2.40625 -7.078125 2.976562 -7.582031 3.75 -7.96875 C 4.53125 -8.351562 5.546875 -8.648438 6.796875 -8.859375 C 7.890625 -9.046875 8.71875 -9.25 9.28125 -9.46875 C 9.851562 -9.695312 10.238281 -9.953125 10.4375 -10.234375 C 10.632812 -10.523438 10.734375 -10.882812 10.734375 -11.3125 C 10.734375 -11.988281 10.5 -12.507812 10.03125 -12.875 C 9.5625 -13.238281 8.804688 -13.421875 7.765625 -13.421875 C 6.785156 -13.421875 5.945312 -13.234375 5.25 -12.859375 C 4.5625 -12.484375 3.925781 -11.921875 3.34375 -11.171875 L 3.0625 -11.171875 L 1.96875 -12.71875 C 2.601562 -13.53125 3.410156 -14.175781 4.390625 -14.65625 C 5.378906 -15.132812 6.503906 -15.375 7.765625 -15.375 C 9.546875 -15.375 10.859375 -14.984375 11.703125 -14.203125 C 12.546875 -13.421875 12.96875 -12.34375 12.96875 -10.96875 L 12.96875 -2.96875 C 12.96875 -2.125 13.320312 -1.703125 14.03125 -1.703125 C 14.269531 -1.703125 14.5 -1.742188 14.71875 -1.828125 L 14.90625 -1.78125 L 15.15625 -0.234375 C 15 -0.117188 14.785156 -0.0351562 14.515625 0.015625 C 14.242188 0.078125 13.96875 0.109375 13.6875 0.109375 C 12.851562 0.109375 12.222656 -0.0703125 11.796875 -0.4375 C 11.378906 -0.800781 11.113281 -1.335938 11 -2.046875 L 10.703125 -2.078125 C 10.273438 -1.285156 9.695312 -0.691406 8.96875 -0.296875 C 8.238281 0.0859375 7.320312 0.28125 6.21875 0.28125 Z M 6.71875 -1.484375 C 7.550781 -1.484375 8.273438 -1.675781 8.890625 -2.0625 C 9.503906 -2.457031 9.972656 -3.003906 10.296875 -3.703125 C 10.628906 -4.410156 10.796875 -5.222656 10.796875 -6.140625 L 10.796875 -8.046875 L 10.546875 -8.109375 C 10.203125 -7.867188 9.789062 -7.671875 9.3125 -7.515625 C 8.832031 -7.359375 8.15625 -7.210938 7.28125 -7.078125 C 6.40625 -6.960938 5.710938 -6.78125 5.203125 -6.53125 C 4.691406 -6.289062 4.328125 -5.976562 4.109375 -5.59375 C 3.890625 -5.21875 3.78125 -4.753906 3.78125 -4.203125 C 3.78125 -3.316406 4.035156 -2.640625 4.546875 -2.171875 C 5.066406 -1.710938 5.789062 -1.484375 6.71875 -1.484375 Z M 6.71875 -1.484375 "/></g></g></g><g fill="#000000" fill-opacity="1"><g transform="translate(301.437106, 394.5)"><g><path d="M 8.65625 0.28125 C 7.320312 0.28125 6.125 -0.0195312 5.0625 -0.625 C 4.007812 -1.226562 3.175781 -2.117188 2.5625 -3.296875 C 1.957031 -4.484375 1.65625 -5.894531 1.65625 -7.53125 C 1.65625 -9.1875 1.957031 -10.601562 2.5625 -11.78125 C 3.175781 -12.957031 4.007812 -13.847656 5.0625 -14.453125 C 6.125 -15.066406 7.320312 -15.375 8.65625 -15.375 C 10.25 -15.375 11.515625 -15.070312 12.453125 -14.46875 C 13.398438 -13.863281 14.082031 -13.0625 14.5 -12.0625 L 12.984375 -10.96875 L 12.71875 -10.96875 C 12.300781 -11.789062 11.769531 -12.394531 11.125 -12.78125 C 10.488281 -13.175781 9.664062 -13.375 8.65625 -13.375 C 7.726562 -13.375 6.910156 -13.15625 6.203125 -12.71875 C 5.503906 -12.28125 4.960938 -11.625 4.578125 -10.75 C 4.191406 -9.875 4 -8.800781 4 -7.53125 C 4 -6.269531 4.191406 -5.203125 4.578125 -4.328125 C 4.972656 -3.460938 5.519531 -2.804688 6.21875 -2.359375 C 6.914062 -1.921875 7.726562 -1.703125 8.65625 -1.703125 C 9.707031 -1.703125 10.578125 -1.9375 11.265625 -2.40625 C 11.953125 -2.882812 12.488281 -3.632812 12.875 -4.65625 L 13.171875 -4.65625 L 14.625 -3.796875 C 14.238281 -2.535156 13.539062 -1.539062 12.53125 -0.8125 C 11.519531 -0.0820312 10.226562 0.28125 8.65625 0.28125 Z M 8.65625 0.28125 "/></g></g></g><g fill="#000000" fill-opacity="1"><g transform="translate(316.979864, 394.5)"><g><path d="M 14.375 -7.03125 L 4 -7.03125 C 4.070312 -5.195312 4.515625 -3.847656 5.328125 -2.984375 C 6.140625 -2.128906 7.257812 -1.703125 8.6875 -1.703125 C 9.757812 -1.703125 10.625 -1.894531 11.28125 -2.28125 C 11.9375 -2.664062 12.453125 -3.269531 12.828125 -4.09375 L 13.109375 -4.09375 L 14.5625 -3.234375 C 14.125 -2.140625 13.421875 -1.28125 12.453125 -0.65625 C 11.492188 -0.03125 10.238281 0.28125 8.6875 0.28125 C 7.226562 0.28125 5.972656 -0.00390625 4.921875 -0.578125 C 3.867188 -1.148438 3.0625 -2.019531 2.5 -3.1875 C 1.9375 -4.351562 1.65625 -5.800781 1.65625 -7.53125 C 1.65625 -9.25 1.953125 -10.691406 2.546875 -11.859375 C 3.148438 -13.035156 3.96875 -13.914062 5 -14.5 C 6.03125 -15.082031 7.210938 -15.375 8.546875 -15.375 C 10.472656 -15.375 11.976562 -14.828125 13.0625 -13.734375 C 14.15625 -12.640625 14.707031 -11.023438 14.71875 -8.890625 C 14.71875 -8.046875 14.695312 -7.476562 14.65625 -7.1875 Z M 12.515625 -8.890625 C 12.472656 -10.492188 12.113281 -11.660156 11.4375 -12.390625 C 10.769531 -13.117188 9.804688 -13.484375 8.546875 -13.484375 C 7.222656 -13.484375 6.1875 -13.113281 5.4375 -12.375 C 4.6875 -11.644531 4.226562 -10.484375 4.0625 -8.890625 Z M 12.515625 -8.890625 "/></g></g></g><g fill="#000000" fill-opacity="1"><g transform="translate(333.055745, 394.5)"><g><path d="M 2.625 0 L 2.625 -21.140625 L 4.859375 -21.140625 L 4.859375 -12.9375 L 5.140625 -12.875 C 6.210938 -14.539062 7.765625 -15.375 9.796875 -15.375 C 11.617188 -15.375 12.9375 -14.910156 13.75 -13.984375 C 14.5625 -13.054688 14.96875 -11.628906 14.96875 -9.703125 L 14.96875 0 L 12.75 0 L 12.75 -9.65625 C 12.75 -10.5625 12.628906 -11.289062 12.390625 -11.84375 C 12.160156 -12.394531 11.800781 -12.796875 11.3125 -13.046875 C 10.820312 -13.296875 10.179688 -13.421875 9.390625 -13.421875 C 8.023438 -13.421875 6.925781 -12.976562 6.09375 -12.09375 C 5.269531 -11.21875 4.859375 -9.765625 4.859375 -7.734375 L 4.859375 0 Z M 2.625 0 "/></g></g></g><g fill="#000000" fill-opacity="1"><g transform="translate(350.416603, 394.5)"><g><path d="M 8.65625 0.28125 C 7.226562 0.28125 5.988281 -0.015625 4.9375 -0.609375 C 3.882812 -1.210938 3.070312 -2.097656 2.5 -3.265625 C 1.9375 -4.441406 1.65625 -5.863281 1.65625 -7.53125 C 1.65625 -9.195312 1.9375 -10.617188 2.5 -11.796875 C 3.070312 -12.972656 3.882812 -13.863281 4.9375 -14.46875 C 5.988281 -15.070312 7.226562 -15.375 8.65625 -15.375 C 10.070312 -15.375 11.304688 -15.070312 12.359375 -14.46875 C 13.421875 -13.863281 14.234375 -12.972656 14.796875 -11.796875 C 15.367188 -10.617188 15.65625 -9.195312 15.65625 -7.53125 C 15.65625 -5.863281 15.367188 -4.441406 14.796875 -3.265625 C 14.234375 -2.097656 13.421875 -1.210938 12.359375 -0.609375 C 11.304688 -0.015625 10.070312 0.28125 8.65625 0.28125 Z M 8.65625 -1.703125 C 10.15625 -1.703125 11.300781 -2.175781 12.09375 -3.125 C 12.894531 -4.070312 13.296875 -5.539062 13.296875 -7.53125 C 13.296875 -9.53125 12.894531 -11.003906 12.09375 -11.953125 C 11.300781 -12.898438 10.15625 -13.375 8.65625 -13.375 C 7.15625 -13.375 6.003906 -12.894531 5.203125 -11.9375 C 4.398438 -10.988281 4 -9.519531 4 -7.53125 C 4 -5.539062 4.398438 -4.070312 5.203125 -3.125 C 6.003906 -2.175781 7.15625 -1.703125 8.65625 -1.703125 Z M 8.65625 -1.703125 "/></g></g></g><g fill="#000000" fill-opacity="1"><g transform="translate(367.722781, 394.5)"><g><path d="M 6 0.28125 C 4.9375 0.28125 4.097656 -0.0195312 3.484375 -0.625 C 2.878906 -1.226562 2.578125 -2.132812 2.578125 -3.34375 L 2.578125 -21.140625 L 4.796875 -21.140625 L 4.796875 -3.484375 C 4.796875 -2.859375 4.914062 -2.40625 5.15625 -2.125 C 5.40625 -1.84375 5.785156 -1.703125 6.296875 -1.703125 C 6.597656 -1.703125 6.910156 -1.753906 7.234375 -1.859375 L 7.421875 -1.8125 L 7.6875 -0.0625 C 7.519531 0.0507812 7.28125 0.132812 6.96875 0.1875 C 6.664062 0.25 6.34375 0.28125 6 0.28125 Z M 6 0.28125 "/></g></g></g><g fill="#000000" fill-opacity="1"><g transform="translate(375.924761, 394.5)"><g><path d="M 7.828125 0.28125 C 6.609375 0.28125 5.535156 -0.00390625 4.609375 -0.578125 C 3.691406 -1.160156 2.96875 -2.035156 2.4375 -3.203125 C 1.914062 -4.367188 1.65625 -5.8125 1.65625 -7.53125 C 1.65625 -9.257812 1.925781 -10.707031 2.46875 -11.875 C 3.019531 -13.039062 3.773438 -13.914062 4.734375 -14.5 C 5.703125 -15.082031 6.816406 -15.375 8.078125 -15.375 C 9.078125 -15.375 9.976562 -15.179688 10.78125 -14.796875 C 11.582031 -14.421875 12.273438 -13.800781 12.859375 -12.9375 L 13.140625 -12.984375 L 13.140625 -21.140625 L 15.375 -21.140625 L 15.375 0 L 13.140625 0 L 13.140625 -2.203125 L 12.859375 -2.25 C 12.359375 -1.507812 11.6875 -0.898438 10.84375 -0.421875 C 10 0.046875 8.992188 0.28125 7.828125 0.28125 Z M 8.515625 -1.703125 C 9.921875 -1.703125 11.039062 -2.179688 11.875 -3.140625 C 12.71875 -4.109375 13.140625 -5.570312 13.140625 -7.53125 C 13.140625 -9.5 12.71875 -10.960938 11.875 -11.921875 C 11.039062 -12.890625 9.921875 -13.375 8.515625 -13.375 C 7.066406 -13.375 5.953125 -12.90625 5.171875 -11.96875 C 4.390625 -11.03125 4 -9.550781 4 -7.53125 C 4 -3.644531 5.503906 -1.703125 8.515625 -1.703125 Z M 8.515625 -1.703125 "/></g></g></g><g fill="#000000" fill-opacity="1"><g transform="translate(393.928114, 394.5)"><g><path d="M 14.375 -7.03125 L 4 -7.03125 C 4.070312 -5.195312 4.515625 -3.847656 5.328125 -2.984375 C 6.140625 -2.128906 7.257812 -1.703125 8.6875 -1.703125 C 9.757812 -1.703125 10.625 -1.894531 11.28125 -2.28125 C 11.9375 -2.664062 12.453125 -3.269531 12.828125 -4.09375 L 13.109375 -4.09375 L 14.5625 -3.234375 C 14.125 -2.140625 13.421875 -1.28125 12.453125 -0.65625 C 11.492188 -0.03125 10.238281 0.28125 8.6875 0.28125 C 7.226562 0.28125 5.972656 -0.00390625 4.921875 -0.578125 C 3.867188 -1.148438 3.0625 -2.019531 2.5 -3.1875 C 1.9375 -4.351562 1.65625 -5.800781 1.65625 -7.53125 C 1.65625 -9.25 1.953125 -10.691406 2.546875 -11.859375 C 3.148438 -13.035156 3.96875 -13.914062 5 -14.5 C 6.03125 -15.082031 7.210938 -15.375 8.546875 -15.375 C 10.472656 -15.375 11.976562 -14.828125 13.0625 -13.734375 C 14.15625 -12.640625 14.707031 -11.023438 14.71875 -8.890625 C 14.71875 -8.046875 14.695312 -7.476562 14.65625 -7.1875 Z M 12.515625 -8.890625 C 12.472656 -10.492188 12.113281 -11.660156 11.4375 -12.390625 C 10.769531 -13.117188 9.804688 -13.484375 8.546875 -13.484375 C 7.222656 -13.484375 6.1875 -13.113281 5.4375 -12.375 C 4.6875 -11.644531 4.226562 -10.484375 4.0625 -8.890625 Z M 12.515625 -8.890625 "/></g></g></g><g fill="#000000" fill-opacity="1"><g transform="translate(410.003995, 394.5)"><g><path d="M 2.625 0 L 2.625 -15.078125 L 4.75 -15.078125 L 4.75 -12.71875 L 5.03125 -12.640625 C 5.726562 -14.359375 7.050781 -15.21875 9 -15.21875 C 10.03125 -15.21875 10.800781 -15.03125 11.3125 -14.65625 L 10.734375 -12.765625 L 10.453125 -12.71875 C 9.890625 -13 9.269531 -13.140625 8.59375 -13.140625 C 7.394531 -13.140625 6.472656 -12.6875 5.828125 -11.78125 C 5.179688 -10.882812 4.859375 -9.421875 4.859375 -7.390625 L 4.859375 0 Z M 2.625 0 "/></g></g></g><g fill="#000000" fill-opacity="1"><g transform="translate(421.650807, 394.5)"><g/></g></g><g fill="#000000" fill-opacity="1"><g transform="translate(428.51313, 394.5)"><g><path d="M 3.75 -18 C 3.269531 -18 2.878906 -18.144531 2.578125 -18.4375 C 2.285156 -18.726562 2.140625 -19.101562 2.140625 -19.5625 C 2.140625 -20.019531 2.285156 -20.394531 2.578125 -20.6875 C 2.878906 -20.988281 3.269531 -21.140625 3.75 -21.140625 C 4.21875 -21.140625 4.597656 -20.988281 4.890625 -20.6875 C 5.191406 -20.394531 5.34375 -20.019531 5.34375 -19.5625 C 5.34375 -19.101562 5.191406 -18.726562 4.890625 -18.4375 C 4.597656 -18.144531 4.21875 -18 3.75 -18 Z M 2.625 0 L 2.625 -15.078125 L 4.859375 -15.078125 L 4.859375 0 Z M 2.625 0 "/></g></g></g><g fill="#000000" fill-opacity="1"><g transform="translate(435.990608, 394.5)"><g><path d="M 2.625 0 L 2.625 -15.078125 L 4.75 -15.078125 L 4.75 -12.859375 L 5.03125 -12.796875 C 5.539062 -13.640625 6.15625 -14.28125 6.875 -14.71875 C 7.601562 -15.15625 8.472656 -15.375 9.484375 -15.375 C 10.648438 -15.375 11.550781 -15.148438 12.1875 -14.703125 C 12.832031 -14.265625 13.332031 -13.550781 13.6875 -12.5625 L 13.96875 -12.5625 C 14.488281 -13.488281 15.128906 -14.1875 15.890625 -14.65625 C 16.648438 -15.132812 17.585938 -15.375 18.703125 -15.375 C 20.253906 -15.375 21.410156 -14.953125 22.171875 -14.109375 C 22.929688 -13.273438 23.3125 -12 23.3125 -10.28125 L 23.3125 0 L 21.078125 0 L 21.078125 -10.234375 C 21.078125 -11.328125 20.847656 -12.128906 20.390625 -12.640625 C 19.929688 -13.160156 19.191406 -13.421875 18.171875 -13.421875 C 16.960938 -13.421875 15.976562 -12.984375 15.21875 -12.109375 C 14.457031 -11.234375 14.078125 -9.796875 14.078125 -7.796875 L 14.078125 0 L 11.859375 0 L 11.859375 -10.234375 C 11.859375 -11.328125 11.625 -12.128906 11.15625 -12.640625 C 10.695312 -13.160156 9.957031 -13.421875 8.9375 -13.421875 C 7.738281 -13.421875 6.757812 -13 6 -12.15625 C 5.238281 -11.3125 4.859375 -9.9375 4.859375 -8.03125 L 4.859375 0 Z M 2.625 0 "/></g></g></g><g fill="#000000" fill-opacity="1"><g transform="translate(461.690157, 394.5)"><g><path d="M 6.21875 0.28125 C 4.738281 0.28125 3.578125 -0.101562 2.734375 -0.875 C 1.898438 -1.644531 1.484375 -2.753906 1.484375 -4.203125 C 1.484375 -5.085938 1.664062 -5.835938 2.03125 -6.453125 C 2.40625 -7.078125 2.976562 -7.582031 3.75 -7.96875 C 4.53125 -8.351562 5.546875 -8.648438 6.796875 -8.859375 C 7.890625 -9.046875 8.71875 -9.25 9.28125 -9.46875 C 9.851562 -9.695312 10.238281 -9.953125 10.4375 -10.234375 C 10.632812 -10.523438 10.734375 -10.882812 10.734375 -11.3125 C 10.734375 -11.988281 10.5 -12.507812 10.03125 -12.875 C 9.5625 -13.238281 8.804688 -13.421875 7.765625 -13.421875 C 6.785156 -13.421875 5.945312 -13.234375 5.25 -12.859375 C 4.5625 -12.484375 3.925781 -11.921875 3.34375 -11.171875 L 3.0625 -11.171875 L 1.96875 -12.71875 C 2.601562 -13.53125 3.410156 -14.175781 4.390625 -14.65625 C 5.378906 -15.132812 6.503906 -15.375 7.765625 -15.375 C 9.546875 -15.375 10.859375 -14.984375 11.703125 -14.203125 C 12.546875 -13.421875 12.96875 -12.34375 12.96875 -10.96875 L 12.96875 -2.96875 C 12.96875 -2.125 13.320312 -1.703125 14.03125 -1.703125 C 14.269531 -1.703125 14.5 -1.742188 14.71875 -1.828125 L 14.90625 -1.78125 L 15.15625 -0.234375 C 15 -0.117188 14.785156 -0.0351562 14.515625 0.015625 C 14.242188 0.078125 13.96875 0.109375 13.6875 0.109375 C 12.851562 0.109375 12.222656 -0.0703125 11.796875 -0.4375 C 11.378906 -0.800781 11.113281 -1.335938 11 -2.046875 L 10.703125 -2.078125 C 10.273438 -1.285156 9.695312 -0.691406 8.96875 -0.296875 C 8.238281 0.0859375 7.320312 0.28125 6.21875 0.28125 Z M 6.71875 -1.484375 C 7.550781 -1.484375 8.273438 -1.675781 8.890625 -2.0625 C 9.503906 -2.457031 9.972656 -3.003906 10.296875 -3.703125 C 10.628906 -4.410156 10.796875 -5.222656 10.796875 -6.140625 L 10.796875 -8.046875 L 10.546875 -8.109375 C 10.203125 -7.867188 9.789062 -7.671875 9.3125 -7.515625 C 8.832031 -7.359375 8.15625 -7.210938 7.28125 -7.078125 C 6.40625 -6.960938 5.710938 -6.78125 5.203125 -6.53125 C 4.691406 -6.289062 4.328125 -5.976562 4.109375 -5.59375 C 3.890625 -5.21875 3.78125 -4.753906 3.78125 -4.203125 C 3.78125 -3.316406 4.035156 -2.640625 4.546875 -2.171875 C 5.066406 -1.710938 5.789062 -1.484375 6.71875 -1.484375 Z M 6.71875 -1.484375 "/></g></g></g><g fill="#000000" fill-opacity="1"><g transform="translate(477.287584, 394.5)"><g><path d="M 7.765625 6.40625 C 5.390625 6.40625 3.65625 6.003906 2.5625 5.203125 C 1.46875 4.410156 0.921875 3.359375 0.921875 2.046875 C 0.921875 1.203125 1.175781 0.53125 1.6875 0.03125 C 2.195312 -0.46875 2.9375 -0.828125 3.90625 -1.046875 L 3.90625 -1.34375 C 3.445312 -1.601562 3.097656 -1.910156 2.859375 -2.265625 C 2.628906 -2.617188 2.515625 -3.046875 2.515625 -3.546875 C 2.515625 -4.128906 2.695312 -4.601562 3.0625 -4.96875 C 3.4375 -5.332031 3.988281 -5.609375 4.71875 -5.796875 L 4.71875 -6.078125 C 3.070312 -6.953125 2.25 -8.363281 2.25 -10.3125 C 2.25 -11.289062 2.472656 -12.160156 2.921875 -12.921875 C 3.367188 -13.691406 4.003906 -14.289062 4.828125 -14.71875 C 5.660156 -15.15625 6.628906 -15.375 7.734375 -15.375 C 9.003906 -15.375 10.0625 -15.09375 10.90625 -14.53125 C 11.226562 -14.882812 11.46875 -15.265625 11.625 -15.671875 C 11.789062 -16.078125 11.894531 -16.535156 11.9375 -17.046875 L 12.21875 -17.234375 L 14.0625 -16.796875 C 13.96875 -16.023438 13.734375 -15.375 13.359375 -14.84375 C 12.992188 -14.320312 12.472656 -13.882812 11.796875 -13.53125 L 11.796875 -13.25 C 12.285156 -12.863281 12.644531 -12.410156 12.875 -11.890625 C 13.101562 -11.378906 13.21875 -10.785156 13.21875 -10.109375 C 13.21875 -9.160156 12.988281 -8.304688 12.53125 -7.546875 C 12.082031 -6.785156 11.441406 -6.1875 10.609375 -5.75 C 9.773438 -5.320312 8.816406 -5.109375 7.734375 -5.109375 C 7.609375 -5.109375 7.382812 -5.117188 7.0625 -5.140625 C 6.695312 -5.160156 6.425781 -5.171875 6.25 -5.171875 C 5.769531 -5.171875 5.390625 -5.046875 5.109375 -4.796875 C 4.828125 -4.554688 4.6875 -4.242188 4.6875 -3.859375 C 4.6875 -3.378906 4.835938 -3.023438 5.140625 -2.796875 C 5.453125 -2.578125 5.957031 -2.457031 6.65625 -2.4375 L 10.234375 -2.3125 C 11.765625 -2.257812 12.898438 -1.898438 13.640625 -1.234375 C 14.390625 -0.578125 14.765625 0.359375 14.765625 1.578125 C 14.765625 2.472656 14.519531 3.28125 14.03125 4 C 13.550781 4.726562 12.785156 5.3125 11.734375 5.75 C 10.691406 6.1875 9.367188 6.40625 7.765625 6.40625 Z M 7.734375 -7.03125 C 8.804688 -7.03125 9.632812 -7.304688 10.21875 -7.859375 C 10.800781 -8.421875 11.09375 -9.203125 11.09375 -10.203125 C 11.09375 -11.242188 10.800781 -12.046875 10.21875 -12.609375 C 9.644531 -13.171875 8.816406 -13.453125 7.734375 -13.453125 C 6.660156 -13.453125 5.84375 -13.171875 5.28125 -12.609375 C 4.71875 -12.046875 4.4375 -11.242188 4.4375 -10.203125 C 4.4375 -9.191406 4.71875 -8.410156 5.28125 -7.859375 C 5.84375 -7.304688 6.660156 -7.03125 7.734375 -7.03125 Z M 7.765625 4.484375 C 8.878906 4.484375 9.785156 4.359375 10.484375 4.109375 C 11.191406 3.867188 11.703125 3.546875 12.015625 3.140625 C 12.328125 2.734375 12.484375 2.28125 12.484375 1.78125 C 12.484375 1.332031 12.398438 0.96875 12.234375 0.6875 C 12.066406 0.414062 11.796875 0.210938 11.421875 0.078125 C 11.046875 -0.0546875 10.535156 -0.140625 9.890625 -0.171875 L 6.515625 -0.34375 L 6.03125 -0.34375 C 4.144531 -0.3125 3.203125 0.421875 3.203125 1.859375 C 3.203125 3.609375 4.722656 4.484375 7.765625 4.484375 Z M 7.765625 4.484375 "/></g></g></g><g fill="#000000" fill-opacity="1"><g transform="translate(492.502229, 394.5)"><g><path d="M 14.375 -7.03125 L 4 -7.03125 C 4.070312 -5.195312 4.515625 -3.847656 5.328125 -2.984375 C 6.140625 -2.128906 7.257812 -1.703125 8.6875 -1.703125 C 9.757812 -1.703125 10.625 -1.894531 11.28125 -2.28125 C 11.9375 -2.664062 12.453125 -3.269531 12.828125 -4.09375 L 13.109375 -4.09375 L 14.5625 -3.234375 C 14.125 -2.140625 13.421875 -1.28125 12.453125 -0.65625 C 11.492188 -0.03125 10.238281 0.28125 8.6875 0.28125 C 7.226562 0.28125 5.972656 -0.00390625 4.921875 -0.578125 C 3.867188 -1.148438 3.0625 -2.019531 2.5 -3.1875 C 1.9375 -4.351562 1.65625 -5.800781 1.65625 -7.53125 C 1.65625 -9.25 1.953125 -10.691406 2.546875 -11.859375 C 3.148438 -13.035156 3.96875 -13.914062 5 -14.5 C 6.03125 -15.082031 7.210938 -15.375 8.546875 -15.375 C 10.472656 -15.375 11.976562 -14.828125 13.0625 -13.734375 C 14.15625 -12.640625 14.707031 -11.023438 14.71875 -8.890625 C 14.71875 -8.046875 14.695312 -7.476562 14.65625 -7.1875 Z M 12.515625 -8.890625 C 12.472656 -10.492188 12.113281 -11.660156 11.4375 -12.390625 C 10.769531 -13.117188 9.804688 -13.484375 8.546875 -13.484375 C 7.222656 -13.484375 6.1875 -13.113281 5.4375 -12.375 C 4.6875 -11.644531 4.226562 -10.484375 4.0625 -8.890625 Z M 12.515625 -8.890625 "/></g></g></g></svg>